<?xml version="1.0" encoding="UTF-8"?>
<svg id="katman_1" data-name="katman 1" xmlns="http://www.w3.org/2000/svg" viewBox="0 0 338.69 277.15">
  <defs>
    <style>
      .cls-1 {
        fill: #544c00;
      }
    </style>
  </defs>
  <g>
    <path class="cls-1" d="M224.76,67.97c-4.14,0-7.49-3.35-7.49-7.49s3.35-7.5,7.49-7.5,7.49,3.36,7.49,7.5-3.35,7.49-7.49,7.49Z"/>
    <path d="M160.54,176.16c-.17,0-.35-.01-.52-.04l-108.17-19.68c-1.39-.25-2.4-1.46-2.4-2.87V27.29c0-.87.39-1.69,1.06-2.24.66-.56,1.53-.79,2.39-.62l35.84,6.51V2.92c0-1.07.58-2.05,1.52-2.56.91-.51,2.05-.48,2.96.09l68.88,44.05c1.16.75,1.64,2.23,1.14,3.52-.51,1.3-1.86,2.06-3.24,1.8l-65.43-11.9v89.67l67.54,43.19c1.16.75,1.64,2.22,1.14,3.52-.45,1.13-1.51,1.85-2.7,1.85ZM52.36,26.06c-.28,0-.56.1-.78.28-.29.24-.45.58-.45.95v126.28c0,.59.43,1.1,1.02,1.21l108.16,19.68c.5.08,1.15-.21,1.37-.76.21-.55.01-1.17-.48-1.49l-68.31-43.69V35.92l67.42,12.27c.58.1,1.15-.21,1.37-.76.21-.55.01-1.17-.48-1.49L92.32,1.88c-.37-.24-.86-.25-1.24-.04-.41.22-.65.63-.65,1.08v30.04l-37.83-6.88c-.07-.01-.15-.02-.23-.02Z"/>
    <path d="M178.17,176.16c-1.2,0-2.27-.72-2.71-1.85-.51-1.3-.02-2.78,1.15-3.52l67.53-43.19V37.93l-65.45,11.9c-1.36.25-2.73-.51-3.24-1.8-.51-1.3-.02-2.78,1.15-3.52L245.47.46c.92-.57,2.06-.6,2.98-.09.93.51,1.5,1.49,1.5,2.55v28.02l35.86-6.52c.83-.16,1.7.07,2.38.62h0c.66.56,1.04,1.38,1.04,2.24v126.28c0,1.4-1,2.61-2.39,2.86l-108.17,19.68c-.19.03-.36.04-.52.04ZM245.82,35.92v92.61l-68.31,43.69c-.5.32-.7.94-.49,1.49.21.54.74.86,1.38.76l108.16-19.68c.58-.11,1.01-.62,1.01-1.21V27.29c0-.36-.16-.71-.44-.94-.29-.24-.66-.33-1-.27l-37.85,6.88V2.92c0-.44-.25-.87-.64-1.08-.39-.22-.88-.21-1.27.04l-68.86,44.05c-.5.31-.7.94-.49,1.49.21.55.79.87,1.37.76l67.43-12.27Z"/>
    <path class="cls-1" d="M137.51,124.62h39.51l-9.72,16.84c-12.38-.65-23.23-7.17-29.79-16.84Z"/>
    <path class="cls-1" d="M134.73,86.26l10.29,17.82,9.47,16.4h-19.43c-2.68-5.24-4.2-11.16-4.2-17.44s1.39-11.71,3.86-16.78Z"/>
    <path class="cls-1" d="M166.58,64.68l-10.29,17.82-9.47,16.39-9.71-16.82c6.4-9.8,17.13-16.52,29.47-17.4Z"/>
    <path class="cls-1" d="M201.18,81.46h-39.5l9.72-16.84c12.37.65,23.21,7.18,29.78,16.84Z"/>
    <path class="cls-1" d="M203.96,119.84l-10.29-17.82h0s-9.46-16.4-9.46-16.4h19.43c2.67,5.24,4.19,11.16,4.19,17.43s-1.39,11.71-3.86,16.8Z"/>
    <polygon class="cls-1" points="159.28 120.49 149.21 103.04 159.28 85.61 179.42 85.61 189.48 103.04 179.42 120.49 159.28 120.49"/>
    <path class="cls-1" d="M172.12,141.41l10.28-17.81,9.47-16.4,9.71,16.82c-6.4,9.8-17.13,16.52-29.46,17.4Z"/>
  </g>
  <g>
    <g>
      <g>
        <path d="M0,208.7h10.45c2.97,0,5.27.73,6.88,2.18,1.63,1.45,2.46,3.31,2.46,5.57,0,3.25-1.87,5.4-5.6,6.43,1.87.3,3.37,1.14,4.53,2.53,1.15,1.38,1.73,2.97,1.73,4.74,0,2.24-.86,4.08-2.59,5.53-1.71,1.45-4.01,2.18-6.92,2.18H0v-29.16ZM3.84,211.78v9.58h6.43c1.77,0,3.16-.42,4.15-1.28.99-.85,1.49-2.02,1.49-3.49s-.5-2.64-1.49-3.49c-.99-.87-2.38-1.31-4.15-1.31H3.84ZM3.84,234.82h6.88c1.87,0,3.32-.46,4.36-1.38,1.06-.92,1.59-2.19,1.59-3.81s-.58-2.88-1.73-3.81c-1.13-.92-2.63-1.38-4.5-1.38H3.84v10.38Z"/>
        <path d="M51.85,208.7v3.04h-11.59v9.93h10.34v2.97h-10.34v10.17h11.59v3.04h-15.43v-29.16h15.43Z"/>
        <path d="M67.07,211.78v-3.08h19.2v3.08h-7.68v26.08h-3.84v-26.08h-7.68Z"/>
        <path d="M122.1,237.87l-2.25-6.4h-12.97l-2.25,6.4h-3.91l10.59-29.16h4.22l10.55,29.16h-3.98ZM107.98,228.46h10.76l-5.36-15.08-5.4,15.08Z"/>
        <path d="M185.15,237.87l-2.25-6.4h-12.97l-2.25,6.4h-3.91l10.59-29.16h4.22l10.55,29.16h-3.98ZM171.04,228.46h10.76l-5.36-15.08-5.4,15.08Z"/>
        <path d="M204.8,208.7h3.84v26.22h10.2v2.94h-14.04v-29.16Z"/>
        <path d="M233.53,208.7h10.45c2.97,0,5.27.73,6.88,2.18,1.63,1.45,2.46,3.31,2.46,5.57,0,3.25-1.87,5.4-5.6,6.43,1.87.3,3.37,1.14,4.53,2.53,1.15,1.38,1.73,2.97,1.73,4.74,0,2.24-.86,4.08-2.59,5.53-1.71,1.45-4.01,2.18-6.92,2.18h-10.93v-29.16ZM237.37,211.78v9.58h6.43c1.77,0,3.16-.42,4.15-1.28.99-.85,1.49-2.02,1.49-3.49s-.5-2.64-1.49-3.49c-.99-.87-2.38-1.31-4.15-1.31h-6.43ZM237.37,234.82h6.88c1.87,0,3.32-.46,4.36-1.38,1.06-.92,1.59-2.19,1.59-3.81s-.58-2.88-1.73-3.81c-1.13-.92-2.63-1.38-4.5-1.38h-6.61v10.38Z"/>
        <path d="M269.92,227.66v-18.96h3.87v18.96c0,2.4.63,4.2,1.9,5.4,1.29,1.18,3.05,1.76,5.29,1.76s4-.59,5.29-1.76c1.29-1.19,1.94-2.99,1.94-5.4v-18.96h3.84v18.96c0,3.42-1.06,6.02-3.15,7.82-2.1,1.8-4.76,2.7-7.96,2.7s-5.85-.9-7.92-2.7c-2.08-1.8-3.11-4.4-3.11-7.82ZM285.97,205.07c-.44.44-.99.66-1.63.66s-1.19-.22-1.63-.66c-.44-.46-.66-.99-.66-1.59s.22-1.15.66-1.59c.43-.46.98-.69,1.63-.69s1.18.23,1.63.69c.43.44.66.97.66,1.59s-.22,1.13-.66,1.59ZM279.15,205.07c-.44.44-.97.66-1.59.66s-1.13-.22-1.59-.66c-.44-.46-.66-.99-.66-1.59s.22-1.15.66-1.59c.46-.46.99-.69,1.59-.69s1.15.23,1.59.69c.46.44.69.97.69,1.59s-.23,1.13-.69,1.59Z"/>
        <path d="M338.69,208.7v29.16h-3.87v-21.24l-9.76,21.24h-2.49l-9.79-21.24v21.24h-3.84v-29.16h3.91l11,23.9,10.93-23.9h3.91Z"/>
      </g>
      <g>
        <path d="M89.13,264.22v5.2h5.28v1.16h-5.28v5.28h5.88v1.16h-7.27v-13.95h7.27v1.16h-5.88Z"/>
        <path d="M102.78,270.06l4.22,6.95h-1.56l-3.55-5.82-3.37,5.82h-1.55l4.2-7.01-4.2-6.91h1.55l3.53,5.8,3.41-5.8h1.55l-4.24,6.97Z"/>
        <path d="M109.67,266.36c.6-1.08,1.41-1.93,2.45-2.53,1.04-.6,2.19-.91,3.47-.91,1.55,0,2.88.37,3.99,1.11s1.92,1.78,2.42,3.12h-1.63c-.4-.94-1.01-1.68-1.82-2.21-.82-.53-1.8-.8-2.96-.8-1.02,0-1.94.24-2.76.72-.82.48-1.46,1.17-1.92,2.06s-.7,1.94-.7,3.12.23,2.22.7,3.11,1.11,1.57,1.92,2.05c.82.48,1.74.72,2.76.72,1.15,0,2.14-.26,2.96-.79.82-.53,1.43-1.25,1.82-2.18h1.63c-.5,1.33-1.32,2.36-2.43,3.09-1.12.73-2.44,1.09-3.98,1.09-1.28,0-2.43-.3-3.47-.91-1.04-.6-1.85-1.44-2.45-2.52-.6-1.08-.9-2.3-.9-3.67s.3-2.59.9-3.68Z"/>
        <path d="M126.17,275.87h5v1.14h-6.4v-13.93h1.39v12.79Z"/>
        <path d="M134.5,263.08v8.77c0,1.38.33,2.4.99,3.07.66.66,1.56,1,2.7,1s2.04-.33,2.68-.99c.64-.66.97-1.68.97-3.08v-8.77h1.39v8.75c0,1.77-.47,3.1-1.41,3.98-.94.89-2.16,1.34-3.65,1.34s-2.72-.45-3.66-1.34c-.94-.89-1.41-2.22-1.41-3.98v-8.75h1.4Z"/>
        <path d="M148.14,276.67c-.7-.32-1.25-.76-1.64-1.33-.4-.57-.61-1.21-.64-1.91h1.47c.07.68.36,1.27.9,1.78.53.51,1.31.77,2.33.77.94,0,1.69-.24,2.24-.73s.83-1.1.83-1.84c0-.6-.15-1.08-.46-1.44-.31-.36-.68-.64-1.14-.82-.45-.18-1.08-.37-1.87-.59-.93-.25-1.67-.5-2.21-.74-.54-.24-1.01-.61-1.39-1.12-.39-.51-.58-1.19-.58-2.05,0-.72.18-1.36.56-1.92.37-.56.9-1.01,1.57-1.32.68-.32,1.45-.48,2.33-.48,1.29,0,2.33.32,3.12.95s1.25,1.44,1.37,2.44h-1.51c-.09-.57-.41-1.08-.94-1.52-.53-.44-1.25-.67-2.15-.67-.84,0-1.53.22-2.09.67-.56.45-.84,1.05-.84,1.82,0,.59.15,1.06.46,1.42.3.36.69.63,1.14.82.46.18,1.08.38,1.86.6.9.25,1.63.5,2.19.75.56.25,1.03.62,1.41,1.13.39.51.58,1.18.58,2.03,0,.65-.17,1.27-.52,1.85-.35.58-.86,1.06-1.53,1.41-.68.36-1.49.54-2.43.54s-1.72-.16-2.42-.48Z"/>
        <path d="M159.12,263.08v13.93h-1.39v-13.93h1.39Z"/>
        <path d="M173.33,263.08l-5.28,13.93h-1.6l-5.28-13.93h1.51l4.56,12.41,4.6-12.41h1.47Z"/>
        <path d="M176.82,264.22v5.2h5.28v1.16h-5.28v5.28h5.88v1.16h-7.27v-13.95h7.27v1.16h-5.88Z"/>
        <path d="M198.97,273.7h-6.34l-1.21,3.31h-1.48l5.08-13.75h1.57l5.06,13.75h-1.48l-1.21-3.31ZM198.56,272.55l-2.75-7.53-2.75,7.53h5.5Z"/>
        <path d="M205.29,275.87h5v1.14h-6.4v-13.93h1.39v12.79Z"/>
        <path d="M220.79,271.01c.54.65.82,1.41.82,2.27,0,.7-.18,1.34-.53,1.9-.35.57-.87,1.01-1.54,1.34s-1.49.49-2.43.49h-4.82v-13.93h4.68c1.41,0,2.48.33,3.22.98.74.65,1.11,1.49,1.11,2.53,0,.86-.23,1.56-.7,2.1-.46.54-1.06.91-1.79,1.13.78.15,1.45.54,1.99,1.2ZM213.68,269.24h3.25c.94,0,1.67-.22,2.18-.67.51-.45.77-1.06.77-1.84s-.26-1.38-.77-1.81c-.51-.44-1.26-.66-2.24-.66h-3.19v4.98ZM219.37,275.12c.56-.48.85-1.14.85-1.97s-.3-1.5-.89-2-1.38-.75-2.38-.75h-3.27v5.44h3.33c1.01,0,1.8-.24,2.36-.72Z"/>
        <path d="M225.52,263.08v8.77c0,1.38.33,2.4.99,3.07.66.66,1.56,1,2.7,1s2.04-.33,2.68-.99c.65-.66.97-1.68.97-3.08v-8.77h1.39v8.75c0,1.77-.47,3.1-1.4,3.98-.94.89-2.16,1.34-3.66,1.34s-2.72-.45-3.65-1.34c-.94-.89-1.41-2.22-1.41-3.98v-8.75h1.4Z"/>
        <path d="M250.96,263.26v13.75h-1.39v-10.98l-4.9,10.98h-1.02l-4.9-10.94v10.94h-1.39v-13.75h1.47l5.32,11.92,5.32-11.92h1.5Z"/>
      </g>
    </g>
    <rect class="cls-1" y="247.44" width="338.69" height="3.64"/>
  </g>
</svg>