<?xml version="1.0" encoding="UTF-8"?>
<svg id="katman_1" data-name="katman 1" xmlns="http://www.w3.org/2000/svg" viewBox="0 0 449.88 127.22">
  <defs>
    <style>
      .cls-1 {
        fill: #544c00;
      }
    </style>
  </defs>
  <g>
    <path class="cls-1" d="M126.61,49.08c-2.99,0-5.41-2.42-5.41-5.41s2.42-5.42,5.41-5.42,5.41,2.43,5.41,5.42-2.42,5.41-5.41,5.41Z"/>
    <path d="M80.23,127.22c-.13,0-.25,0-.38-.03L1.73,112.97c-1-.18-1.73-1.05-1.73-2.07V19.71c0-.63.28-1.22.77-1.62.48-.4,1.11-.57,1.73-.45l25.88,4.7V2.11c0-.77.42-1.48,1.1-1.85.66-.37,1.48-.35,2.14.07l49.74,31.81c.84.54,1.19,1.61.82,2.54-.37.94-1.35,1.49-2.34,1.3l-47.26-8.6v64.76l48.77,31.19c.84.54,1.19,1.61.82,2.54-.32.81-1.09,1.34-1.95,1.34ZM2.11,18.82c-.2,0-.41.07-.56.2-.21.17-.33.42-.33.68v91.2c0,.43.31.8.74.87l78.11,14.21c.36.06.83-.15.99-.55.15-.39,0-.85-.35-1.07l-49.33-31.55V25.94l48.69,8.86c.42.08.83-.15.99-.55.15-.4.01-.85-.34-1.08L30.96,1.36c-.27-.17-.62-.18-.9-.03-.29.16-.47.46-.47.78v21.69L2.27,18.83c-.05-.01-.11-.02-.16-.02Z"/>
    <path d="M92.96,127.22c-.87,0-1.64-.52-1.96-1.33-.37-.94-.02-2.01.83-2.55l48.77-31.19V27.39l-47.26,8.6c-.98.18-1.97-.36-2.34-1.3-.37-.94-.02-2.01.83-2.54L141.56.33c.66-.41,1.49-.44,2.16-.07.67.37,1.09,1.07,1.09,1.84v20.24l25.89-4.71c.6-.12,1.23.05,1.72.45h0c.48.41.75.99.75,1.62v91.2c0,1.01-.72,1.88-1.72,2.07l-78.12,14.21c-.13.02-.26.03-.38.03ZM141.82,25.94v66.88l-49.33,31.55c-.36.23-.51.68-.35,1.08.15.39.53.62,1,.55l78.11-14.21c.42-.08.73-.45.73-.87V19.71c0-.26-.12-.51-.32-.68-.21-.17-.47-.24-.72-.19l-27.33,4.97V2.11c0-.32-.18-.63-.46-.78-.28-.16-.64-.15-.92.03l-49.73,31.81c-.36.23-.51.68-.35,1.08.15.4.57.63.99.55l48.7-8.86Z"/>
    <path class="cls-1" d="M63.6,90h28.53l-7.02,12.16c-8.94-.47-16.77-5.18-21.52-12.16Z"/>
    <path class="cls-1" d="M61.59,62.29l7.43,12.87,6.84,11.85h-14.03c-1.94-3.79-3.03-8.06-3.03-12.6s1-8.46,2.79-12.12Z"/>
    <path class="cls-1" d="M84.59,46.71l-7.43,12.87-6.84,11.84-7.01-12.14c4.62-7.08,12.37-11.93,21.29-12.57Z"/>
    <path class="cls-1" d="M109.58,58.83h-28.53l7.02-12.16c8.93.47,16.76,5.19,21.51,12.16Z"/>
    <path class="cls-1" d="M111.59,86.55l-7.43-12.87h0s-6.83-11.85-6.83-11.85h14.03c1.93,3.79,3.03,8.06,3.03,12.59s-1,8.46-2.79,12.13Z"/>
    <polygon class="cls-1" points="79.32 87.01 72.05 74.42 79.32 61.83 93.86 61.83 101.13 74.42 93.86 87.01 79.32 87.01"/>
    <path class="cls-1" d="M88.59,102.12l7.42-12.86,6.84-11.85,7.01,12.14c-4.62,7.08-12.37,11.93-21.28,12.57Z"/>
  </g>
  <g>
    <g>
      <g>
        <path d="M205.28,41.61h7.54c2.15,0,3.8.52,4.97,1.57,1.18,1.05,1.77,2.39,1.77,4.02,0,2.35-1.35,3.9-4.05,4.65,1.35.22,2.44.82,3.27,1.82.83,1,1.25,2.14,1.25,3.42,0,1.62-.62,2.95-1.87,4-1.24,1.05-2.9,1.57-5,1.57h-7.89v-21.06ZM208.06,43.83v6.92h4.65c1.28,0,2.28-.31,3-.92.71-.61,1.07-1.46,1.07-2.52s-.36-1.9-1.07-2.52c-.72-.63-1.72-.95-3-.95h-4.65ZM208.06,60.47h4.97c1.35,0,2.4-.33,3.15-1,.76-.66,1.15-1.58,1.15-2.75s-.42-2.08-1.25-2.75c-.82-.66-1.9-1-3.25-1h-4.77v7.49Z"/>
        <path d="M242.73,41.61v2.2h-8.37v7.17h7.47v2.15h-7.47v7.34h8.37v2.2h-11.14v-21.06h11.14Z"/>
        <path d="M253.72,43.83v-2.22h13.87v2.22h-5.55v18.84h-2.77v-18.84h-5.55Z"/>
        <path d="M293.46,62.67l-1.62-4.62h-9.37l-1.62,4.62h-2.82l7.64-21.06h3.05l7.62,21.06h-2.87ZM283.27,55.87h7.77l-3.87-10.89-3.9,10.89Z"/>
        <path d="M338.99,62.67l-1.62-4.62h-9.37l-1.62,4.62h-2.82l7.64-21.06h3.05l7.62,21.06h-2.87ZM328.8,55.87h7.77l-3.87-10.89-3.9,10.89Z"/>
        <path d="M353.18,41.61h2.77v18.94h7.37v2.12h-10.14v-21.06Z"/>
        <path d="M373.93,41.61h7.54c2.15,0,3.8.52,4.97,1.57,1.18,1.05,1.77,2.39,1.77,4.02,0,2.35-1.35,3.9-4.05,4.65,1.35.22,2.44.82,3.27,1.82.83,1,1.25,2.14,1.25,3.42,0,1.62-.62,2.95-1.87,4-1.24,1.05-2.9,1.57-5,1.57h-7.89v-21.06ZM376.7,43.83v6.92h4.65c1.28,0,2.28-.31,3-.92.71-.61,1.07-1.46,1.07-2.52s-.36-1.9-1.07-2.52c-.72-.63-1.72-.95-3-.95h-4.65ZM376.7,60.47h4.97c1.35,0,2.4-.33,3.15-1,.76-.66,1.15-1.58,1.15-2.75s-.42-2.08-1.25-2.75c-.82-.66-1.9-1-3.25-1h-4.77v7.49Z"/>
        <path d="M400.21,55.3v-13.69h2.8v13.69c0,1.74.46,3.04,1.37,3.9.93.85,2.2,1.27,3.82,1.27s2.89-.42,3.82-1.27c.93-.86,1.4-2.16,1.4-3.9v-13.69h2.77v13.69c0,2.47-.76,4.35-2.27,5.65-1.52,1.3-3.44,1.95-5.75,1.95s-4.22-.65-5.72-1.95-2.25-3.18-2.25-5.65ZM411.8,38.98c-.32.32-.71.47-1.17.47s-.86-.16-1.17-.47c-.32-.33-.47-.71-.47-1.15s.16-.83.47-1.15c.31-.33.71-.5,1.17-.5s.86.17,1.17.5c.31.32.47.7.47,1.15s-.16.82-.47,1.15ZM406.88,38.98c-.32.32-.7.47-1.15.47s-.82-.16-1.15-.47c-.32-.33-.47-.71-.47-1.15s.16-.83.47-1.15c.33-.33.71-.5,1.15-.5s.83.17,1.15.5c.33.32.5.7.5,1.15s-.17.82-.5,1.15Z"/>
        <path d="M449.88,41.61v21.06h-2.8v-15.34l-7.04,15.34h-1.8l-7.07-15.34v15.34h-2.77v-21.06h2.82l7.94,17.26,7.89-17.26h2.82Z"/>
      </g>
      <g>
        <path d="M269.65,81.7v3.76h3.81v.83h-3.81v3.81h4.24v.83h-5.25v-10.07h5.25v.83h-4.24Z"/>
        <path d="M279.51,85.91l3.05,5.02h-1.12l-2.56-4.2-2.43,4.2h-1.12l3.04-5.07-3.04-4.99h1.12l2.55,4.19,2.46-4.19h1.12l-3.06,5.04Z"/>
        <path d="M284.48,83.24c.43-.78,1.02-1.39,1.77-1.83.75-.44,1.58-.65,2.5-.65,1.12,0,2.08.27,2.88.8s1.38,1.28,1.75,2.25h-1.18c-.29-.68-.73-1.21-1.32-1.6-.59-.38-1.3-.57-2.14-.57-.74,0-1.4.17-1.99.52-.59.35-1.05.84-1.39,1.49s-.5,1.4-.5,2.25.17,1.6.5,2.24.8,1.14,1.39,1.48c.59.34,1.25.52,1.99.52.83,0,1.55-.19,2.14-.57.59-.38,1.03-.9,1.32-1.58h1.18c-.36.96-.95,1.7-1.76,2.23-.81.53-1.76.79-2.88.79-.92,0-1.76-.22-2.5-.65-.75-.44-1.34-1.04-1.77-1.82-.43-.78-.65-1.66-.65-2.65s.22-1.87.65-2.65Z"/>
        <path d="M296.4,90.12h3.61v.82h-4.62v-10.06h1.01v9.24Z"/>
        <path d="M302.41,80.88v6.33c0,1,.24,1.74.71,2.22.47.48,1.12.72,1.95.72s1.47-.24,1.94-.71c.46-.48.7-1.22.7-2.22v-6.33h1.01v6.32c0,1.28-.34,2.24-1.02,2.88-.68.64-1.56.96-2.64.96s-1.96-.32-2.64-.96c-.68-.64-1.02-1.6-1.02-2.88v-6.32h1.01Z"/>
        <path d="M312.26,90.69c-.5-.23-.9-.55-1.19-.96-.29-.41-.44-.87-.46-1.38h1.06c.05.49.26.92.65,1.29.38.37.95.55,1.68.55.68,0,1.22-.18,1.62-.53s.6-.79.6-1.33c0-.43-.11-.78-.33-1.04-.22-.26-.49-.46-.82-.59-.33-.13-.78-.27-1.35-.43-.67-.18-1.2-.36-1.6-.53-.39-.17-.73-.44-1.01-.81-.28-.37-.42-.86-.42-1.48,0-.52.13-.98.4-1.39.27-.41.65-.73,1.14-.96.49-.23,1.05-.35,1.68-.35.93,0,1.68.23,2.25.68s.9,1.04.99,1.76h-1.09c-.07-.41-.29-.78-.68-1.1-.38-.32-.9-.48-1.55-.48-.6,0-1.11.16-1.51.48-.4.32-.6.76-.6,1.32,0,.42.11.76.33,1.02.22.26.5.46.83.59.33.13.78.28,1.35.43.65.18,1.18.36,1.58.54.4.18.74.45,1.02.81.28.37.42.85.42,1.47,0,.47-.13.92-.37,1.34-.25.42-.62.76-1.11,1.02s-1.08.39-1.76.39-1.24-.12-1.75-.35Z"/>
        <path d="M320.2,80.88v10.06h-1.01v-10.06h1.01Z"/>
        <path d="M330.46,80.88l-3.81,10.06h-1.15l-3.81-10.06h1.09l3.3,8.97,3.32-8.97h1.06Z"/>
        <path d="M332.98,81.7v3.76h3.81v.83h-3.81v3.81h4.24v.83h-5.25v-10.07h5.25v.83h-4.24Z"/>
        <path d="M348.98,88.55h-4.58l-.88,2.39h-1.07l3.67-9.93h1.14l3.65,9.93h-1.07l-.88-2.39ZM348.67,87.71l-1.99-5.44-1.99,5.44h3.97Z"/>
        <path d="M353.54,90.12h3.61v.82h-4.62v-10.06h1.01v9.24Z"/>
        <path d="M364.73,86.6c.39.47.59,1.02.59,1.64,0,.51-.13.97-.38,1.37-.25.41-.63.73-1.11.96s-1.07.35-1.76.35h-3.48v-10.06h3.38c1.02,0,1.79.24,2.32.71.53.47.8,1.08.8,1.83,0,.62-.17,1.13-.5,1.52-.33.39-.77.66-1.3.81.57.11,1.05.39,1.44.86ZM359.6,85.32h2.35c.68,0,1.21-.16,1.58-.48.37-.32.55-.76.55-1.33s-.19-.99-.55-1.31c-.37-.32-.91-.48-1.62-.48h-2.3v3.6ZM363.71,89.57c.41-.35.61-.82.61-1.42s-.21-1.09-.64-1.45-1-.54-1.72-.54h-2.36v3.93h2.4c.73,0,1.3-.17,1.71-.52Z"/>
        <path d="M368.14,80.88v6.33c0,1,.24,1.74.71,2.22.47.48,1.12.72,1.95.72s1.47-.24,1.93-.71c.47-.48.7-1.22.7-2.22v-6.33h1.01v6.32c0,1.28-.34,2.24-1.01,2.88-.68.64-1.56.96-2.64.96s-1.96-.32-2.64-.96c-.68-.64-1.02-1.6-1.02-2.88v-6.32h1.01Z"/>
        <path d="M386.52,81.01v9.93h-1.01v-7.93l-3.54,7.93h-.73l-3.54-7.9v7.9h-1.01v-9.93h1.06l3.84,8.6,3.84-8.6h1.08Z"/>
      </g>
    </g>
    <rect class="cls-1" x="205.28" y="69.58" width="244.6" height="2.63"/>
  </g>
</svg>